<svg xmlns="http://www.w3.org/2000/svg" xmlns:xlink="http://www.w3.org/1999/xlink" viewBox="0 0 102.05 144.58"><defs><style>.cls-1{fill:url(#linear-gradient);}.cls-2{fill:url(#linear-gradient-2);}.cls-3{fill:url(#linear-gradient-3);}.cls-4{fill:url(#linear-gradient-4);}.cls-5{fill:url(#linear-gradient-5);}</style><linearGradient id="linear-gradient" x1="17.95" y1="-13.9" x2="92.52" y2="125.17" gradientUnits="userSpaceOnUse"><stop offset="0" stop-color="#3d80c2"></stop><stop offset="1" stop-color="#2e5986"></stop></linearGradient><linearGradient id="linear-gradient-2" x1="584.32" y1="834.29" x2="636.56" y2="846.9" gradientTransform="translate(-566.57 -771.66)" gradientUnits="userSpaceOnUse"><stop offset="0" stop-color="#bf9a30"></stop><stop offset="0.25" stop-color="#ffcf3f"></stop><stop offset="0.5" stop-color="#fdbe10"></stop><stop offset="0.75" stop-color="#bf9a30"></stop><stop offset="1" stop-color="#a57d2d"></stop></linearGradient><linearGradient id="linear-gradient-3" x1="15.68" y1="-12.68" x2="90.25" y2="126.38" xlink:href="#linear-gradient"></linearGradient><linearGradient id="linear-gradient-4" x1="-0.45" y1="4.96" x2="84.21" y2="24.77" gradientTransform="matrix(1, 0, 0, 1, 0, 0)" xlink:href="#linear-gradient-2"></linearGradient><linearGradient id="linear-gradient-5" x1="-21.21" y1="7.1" x2="53.36" y2="146.17" xlink:href="#linear-gradient"></linearGradient></defs><title>ETYOP Icon - Full Color</title><g id="Layer_2" data-name="Layer 2"><g id="Layer_1-2" data-name="Layer 1"><path class="cls-1" d="M102.05,73S95.66,62.13,77.42,62.4a38.58,38.58,0,0,0-4.78-14,20.83,20.83,0,0,1-8,1.56H59.24a26.88,26.88,0,0,1,6.68,17.76c0,.58,0,1.15-.06,1.72a27,27,0,0,1-27,25.31h-.2q1.37,1.59,2.87,3.21l.06.07c.43.48.87,1,1.33,1.43l.21.23c1.76,1.85,3.64,3.74,5.64,5.65a38.92,38.92,0,0,0,28.57-32A72.19,72.19,0,0,1,102.05,73Z"></path><circle class="cls-2" cx="38.89" cy="67.73" r="14.8" transform="translate(-14.07 10.33) rotate(-12.83)"></circle><path class="cls-3" d="M77.78,29H0A13.09,13.09,0,0,0,13.1,42.05H64.68A13.09,13.09,0,0,0,77.78,29Z"></path><path class="cls-4" d="M77.78,5.78a23.42,23.42,0,0,1-33.11,0L38.89,0,33.11,5.78A23.42,23.42,0,0,1,0,5.78H0V22.55H77.78Z"></path><path class="cls-5" d="M45.29,118.26q-6.09-5.48-10.74-10.42l-.07-.07c-.52-.54-1-1.08-1.5-1.61l-.15-.16C24,96.43,19,88.55,16.08,82.51a26.94,26.94,0,0,1-4.32-13.07h.16c0-.57-.06-1.14-.06-1.72a26.85,26.85,0,0,1,5.93-16.86c.25-.3.49-.6.75-.9H13.1a20.84,20.84,0,0,1-8-1.56c-.25.42-.49.86-.72,1.29A38.83,38.83,0,0,0,0,67.72c0,.58,0,1.15,0,1.72A38.32,38.32,0,0,0,4.43,85.75a1,1,0,0,0,0,.1c5.34,12,17.36,29.2,43.93,50.65l10,8.08-.39-14Z"></path></g></g></svg>